<svg xmlns="http://www.w3.org/2000/svg" xmlns:xlink="http://www.w3.org/1999/xlink" width="100" height="100" viewBox="0 0 100 100">
  <defs>
    <clipPath id="clip-go">
      <rect width="100" height="100"/>
    </clipPath>
  </defs>
  <g id="go" clip-path="url(#clip-go)">
    <g id="Group_239" data-name="Group 239" transform="translate(-568.376 -12.03)">
      <g id="Group_236" data-name="Group 236">
        <path id="Path_90" data-name="Path 90" d="M610.35,58.76V75.33c-3.27,2.6-9.66,4.83-15.06,4.83-10.44,0-18.8-6.75-18.8-18.13,0-11.48,8.36-18.23,18.8-18.23A21.134,21.134,0,0,1,609,48.58l-3.38,5.56a15.26,15.26,0,0,0-10.18-3.58c-6.44,0-11.43,4.16-11.43,11.48,0,7.22,4.99,11.38,11.74,11.38a14.564,14.564,0,0,0,7.32-1.87V65.06h-9.3V58.77h16.58Z" fill="#222221"/>
      </g>
      <g id="Group_237" data-name="Group 237">
        <path id="Path_91" data-name="Path 91" d="M630.45,51.75c8.52,0,14.65,6.13,14.65,14.39,0,8.15-6.13,14.23-14.65,14.23-8.41,0-14.54-6.08-14.54-14.23C615.91,57.88,622.04,51.75,630.45,51.75Zm0,21.97a7.661,7.661,0,1,0-7.53-7.58A7.354,7.354,0,0,0,630.45,73.72Z" fill="#222221"/>
      </g>
      <g id="Group_238" data-name="Group 238">
        <path id="Path_92" data-name="Path 92" d="M655.65,71.54c2.86,0,4.52,1.61,4.52,4.41s-1.66,4.36-4.52,4.36-4.47-1.56-4.47-4.36S652.79,71.54,655.65,71.54Zm-3.69-27.22h7.32l-1.09,22.59h-5.14Z" fill="#222221"/>
      </g>
    </g>
  </g>
</svg>
